<svg xmlns="http://www.w3.org/2000/svg" xmlns:xlink="http://www.w3.org/1999/xlink" width="500" zoomAndPan="magnify" viewBox="0 0 375 374.999991" height="500" preserveAspectRatio="xMidYMid meet" version="1.0"><defs><clipPath id="37bef6dc2a"><path d="M 29.964844 29.964844 L 344.964844 29.964844 L 344.964844 344.964844 L 29.964844 344.964844 Z M 29.964844 29.964844 " clip-rule="nonzero"/></clipPath><clipPath id="b6adaafd15"><path d="M 138.425781 313.121094 L 148 313.121094 L 148 320.296875 L 138.425781 320.296875 Z M 138.425781 313.121094 " clip-rule="nonzero"/></clipPath><clipPath id="f7bce44ed6"><path d="M 140.820312 320.296875 L 145.605469 320.296875 L 147.996094 313.121094 L 138.425781 313.121094 Z M 140.820312 320.296875 " clip-rule="nonzero"/></clipPath></defs><g clip-path="url(#37bef6dc2a)"><path fill="#000000" d="M 187.464844 29.964844 C 100.628906 29.964844 29.964844 100.628906 29.964844 187.464844 C 29.964844 274.296875 100.628906 344.964844 187.464844 344.964844 C 274.300781 344.964844 344.964844 274.296875 344.964844 187.464844 C 344.964844 100.628906 274.300781 29.964844 187.464844 29.964844 Z M 267.683594 267.683594 C 265.6875 269.785156 262.960938 270.835938 260.335938 270.835938 C 257.605469 270.835938 254.875 269.785156 252.878906 267.683594 L 210.039062 224.84375 C 197.542969 234.085938 182.738281 238.808594 167.828125 238.808594 C 149.664062 238.808594 131.5 231.878906 117.742188 218.019531 C 90.023438 190.402344 90.023438 145.359375 117.742188 117.742188 C 145.359375 90.023438 190.300781 90.023438 218.019531 117.742188 C 243.21875 142.839844 245.425781 182.214844 224.84375 210.039062 L 267.683594 252.878906 C 271.78125 256.972656 271.78125 263.589844 267.683594 267.683594 Z M 267.683594 267.683594 " fill-opacity="1" fill-rule="nonzero"/></g><path fill="#000000" d="M 167.828125 117.953125 C 155.125 117.953125 142.3125 122.785156 132.550781 132.546875 C 113.125 151.972656 113.125 183.683594 132.550781 203.214844 C 151.972656 222.640625 183.683594 222.640625 203.214844 203.214844 C 222.640625 183.683594 222.640625 151.972656 203.214844 132.546875 C 193.449219 122.785156 180.640625 117.953125 167.828125 117.953125 Z M 167.828125 117.953125 " fill-opacity="1" fill-rule="nonzero"/><g clip-path="url(#b6adaafd15)"><g clip-path="url(#f7bce44ed6)"><path fill="#000000" d="M 138.425781 313.121094 L 147.988281 313.121094 L 147.988281 320.296875 L 138.425781 320.296875 Z M 138.425781 313.121094 " fill-opacity="1" fill-rule="nonzero"/></g></g></svg>